<?xml version="1.0" encoding="UTF-8"?>
<svg width="340px" height="320px" viewBox="0 0 340 320" version="1.1" xmlns="http://www.w3.org/2000/svg" xmlns:xlink="http://www.w3.org/1999/xlink">
    <!-- Generator: Sketch 51.3 (57544) - http://www.bohemiancoding.com/sketch -->
    <title>Group 8</title>
    <desc>Created with Sketch.</desc>
    <defs>
        <path d="M2.33690313,0.211484505 L11.0863902,1.00329351 C12.1554252,1.10003878 12.9574596,2.02342949 12.9036133,3.0954817 L10.1408699,58.1003284 C10.0874164,59.1645599 9.20896101,60.0000003 8.1433879,60.0000003 L6.00323186,60.0000003 C4.95204707,60.0000003 4.08026407,59.1862483 4.00796762,58.1375526 L0.161380015,2.34089693 C0.0854119738,1.23894292 0.917137934,0.284048432 2.01909194,0.208080391 C2.12495157,0.200782492 2.23122411,0.20192079 2.33690313,0.211484505 Z" id="path-1"></path>
        <path d="M2.98073179,-1.86432381e-16 L10.0072227,2.66453526e-15 C11.1117922,2.46162913e-15 12.0072227,0.8954305 12.0072227,2 C12.0072227,2.03504423 12.0063017,2.0700824 12.0044605,2.10507823 L9.11081264,57.1050782 C9.05492495,58.167344 8.17730982,59 7.11357491,59 L4.07699038,59 C2.98795473,59 2.09908987,58.1286754 2.07738755,57.039856 L0.981128959,2.03985603 C0.95911708,0.935505881 1.83652561,0.0224090441 2.94087576,0.000397165264 C2.95415946,0.000132394994 2.96744546,8.9061908e-16 2.98073179,8.8817842e-16 Z" id="path-3"></path>
        <path d="M3,0 L24,0 L24,19 L3,19 C1.34314575,19 2.02906125e-16,17.6568542 0,16 L0,3 C-2.02906125e-16,1.34314575 1.34314575,3.04359188e-16 3,0 Z" id="path-5"></path>
        <rect id="path-7" x="0" y="0" width="43" height="14" rx="3"></rect>
        <rect id="path-9" x="0" y="0" width="42" height="11" rx="5"></rect>
        <rect id="path-11" x="0" y="0" width="37" height="65" rx="6"></rect>
    </defs>
    <g id="Page-1" stroke="none" stroke-width="1" fill="none" fill-rule="evenodd">
        <g id="Desktop" transform="translate(-586.000000, -1412.000000)">
            <g id="Group-8" transform="translate(586.000000, 1412.000000)">
                <g id="600" transform="translate(113.000000, 0.000000)">
                    <rect id="Rectangle-19" fill="#161616" x="19" y="207" width="202" height="7" rx="2"></rect>
                    <rect id="Rectangle-19" fill="#161616" x="21" y="180" width="202" height="7" rx="2"></rect>
                    <rect id="Rectangle-16" fill="#3B383A" x="1" y="180" width="14" height="36" rx="2"></rect>
                    <path d="M5,179 L21,179 C22.1045695,179 23,179.895431 23,181 L23,207 C23,208.104569 22.1045695,209 21,209 L2,209 C0.8954305,209 1.3527075e-16,208.104569 0,207 L0,184 C-3.38176876e-16,181.238576 2.23857625,179 5,179 Z" id="Rectangle-16" fill="#3B383A"></path>
                    <path d="M98.854933,96.1288265 L100.715534,100.231691 C101.525976,102.018819 103.306874,103.166667 105.269178,103.166667 L143.162791,103.166667 C145.178295,97.7222222 146.387597,95 146.790698,95 C147.193798,95 147.596899,96.9444444 148,100.833333 L145.581395,109 L100.926154,109 C99.474598,109 98.2312618,107.960758 97.9737426,106.532227 L96,95.5833333 L96,95.5833333 C96.7069906,94.9012687 97.8330424,94.9214752 98.515107,95.6284658 C98.6561171,95.774629 98.7710538,95.9438621 98.854933,96.1288265 Z" id="Path-4" fill="#181818"></path>
                    <g id="Rectangle-18" transform="translate(14.000000, 56.000000)">
                        <mask id="mask-2" fill="white">
                            <use xlink:href="#path-1"></use>
                        </mask>
                        <use id="Mask" fill="#353535" xlink:href="#path-1"></use>
                        <rect fill="#AAA6A6" mask="url(#mask-2)" x="3.54545455" y="54.1176471" width="10.6363636" height="5.88235294"></rect>
                    </g>
                    <path d="M24,95 L97.1317883,95 C98.2363578,95 99.1317883,95.8954305 99.1317883,97 C99.1317883,97.2232918 99.0943957,97.4450072 99.0211618,97.6559479 L97.9796294,100.655948 C97.7002821,101.460572 96.9419921,102 96.0902559,102 L24,102 C22.8954305,102 22,101.104569 22,100 L22,97 C22,95.8954305 22.8954305,95 24,95 Z" id="Rectangle-15" fill="#2C2B2B"></path>
                    <g id="Group" transform="translate(222.000000, 169.500000) scale(-1, 1) translate(-222.000000, -169.500000) translate(217.000000, 148.000000)">
                        <polygon id="Path-17" fill="#707071" points="3.75 1.19444444 10 1.19444444 10 38.2222222 6.875 38.2222222"></polygon>
                        <polygon id="Path-16" fill="#3B383A" points="0 0 2.8125 43 7.5 43 4.6875 0"></polygon>
                    </g>
                    <path d="M147.931751,95 L221,95 C222.104569,95 223,95.8954305 223,97 C223,97.1232675 222.988604,97.2462711 222.965957,97.3674404 L222.508734,99.8137713 C222.332897,100.754572 221.515176,101.438933 220.558113,101.446272 L147.947087,102.003058 C146.84255,102.011528 145.94028,101.12299 145.93181,100.018453 C145.931771,100.013341 145.931751,100.008229 145.931751,100.003117 L145.931751,97 C145.931751,95.8954305 146.827182,95 147.931751,95 Z" id="Rectangle-15" fill="#2C2B2B" transform="translate(184.465876, 98.501559) scale(-1, 1) translate(-184.465876, -98.501559) "></path>
                    <g id="Rectangle-18" transform="translate(214.000000, 56.000000)">
                        <mask id="mask-4" fill="white">
                            <use xlink:href="#path-3"></use>
                        </mask>
                        <use id="Mask" fill="#353535" transform="translate(6.493973, 29.500000) scale(-1, 1) translate(-6.493973, -29.500000) " xlink:href="#path-3"></use>
                        <rect fill="#AAA6A6" mask="url(#mask-4)" x="1" y="53.1" width="11" height="5.9"></rect>
                    </g>
                    <path d="M24.9960334,100 C48.453495,100 71.9109567,100 95.3684184,100 C100.014124,100 98.7947008,107.218598 101.883932,107.363636 C121.751136,108.296392 134.720006,107.38349 143.394077,107.363636 C145.024889,107.359904 146.774109,100 148.308893,100 C173.842149,100 197.088944,100.172185 218.049278,100.516554 L218.049278,100.51655 C219.686699,100.543452 221,101.878507 221,103.51615 L221,178 C221,179.656854 219.656854,181 218,181 L23.567866,181 C23.0184795,181 22.5719739,180.556798 22.5678936,180.007427 L21.9961161,103.022281 C21.9838108,101.365472 23.3169441,100.012388 24.9737526,100.000083 C24.9811794,100.000028 24.9886064,100 24.9960334,100 Z" id="Rectangle-25" fill="#454545"></path>
                    <path d="M217.233929,77.1189897 L219.484175,73.6190712 C219.892305,72.9842861 220.737754,72.800546 221.372539,73.208676 C221.763607,73.46011 222,73.8931334 222,74.358056 L222,96.5 C222,97.3284271 221.328427,98 220.5,98 L219.636906,98 C218.84421,98 218.188356,97.3832157 218.13973,96.592013 L216.998473,78.022215 C216.978902,77.7037608 217.061382,77.3873616 217.233929,77.1189897 Z" id="Rectangle-17" fill="#1E1E1E"></path>
                    <path d="M20.2379783,77.1188484 L22.4882235,73.6189298 C22.8963536,72.9841447 23.7418033,72.8004046 24.3765884,73.2085346 C24.7676562,73.4599686 25.0040489,73.892992 25.0040489,74.3579146 L25.0040489,96.4998586 C25.0040489,97.3282857 24.332476,97.9998586 23.5040489,97.9998586 L22.6409544,97.9998586 C21.8482589,97.9998586 21.1924047,97.3830743 21.1437792,96.5918716 L20.002522,78.0220736 C19.9829505,77.7036194 20.0654307,77.3872202 20.2379783,77.1188484 Z" id="Rectangle-17" fill="#1E1E1E" transform="translate(22.501873, 85.495581) scale(-1, 1) rotate(4.000000) translate(-22.501873, -85.495581) "></path>
                    <rect id="Rectangle-6" fill="#3B3838" x="166" y="102" width="50" height="77" rx="3"></rect>
                    <rect id="Rectangle-6" fill="#4A4A4A" x="167" y="103" width="48" height="75" rx="3"></rect>
                    <path d="M172,156 L188,156 L188,175 L172,175 C170.343146,175 169,173.656854 169,172 L169,159 C169,157.343146 170.343146,156 172,156 Z" id="Rectangle-8" fill="#2C2B2B"></path>
                    <g id="Rectangle-10" transform="translate(189.000000, 156.000000)">
                        <mask id="mask-6" fill="white">
                            <use xlink:href="#path-5"></use>
                        </mask>
                        <use id="Mask" fill="#474343" transform="translate(12.000000, 9.500000) scale(-1, 1) translate(-12.000000, -9.500000) " xlink:href="#path-5"></use>
                        <rect stroke="#979797" fill="#D8D8D8" mask="url(#mask-6)" x="1.7" y="-0.6875" width="1" height="20.375" rx="0.5"></rect>
                        <rect stroke="#979797" fill="#D8D8D8" mask="url(#mask-6)" x="16.1" y="-1.875" width="1" height="20.375" rx="0.5"></rect>
                        <rect stroke="#979797" fill="#D8D8D8" mask="url(#mask-6)" x="20.9" y="-1.875" width="1" height="20.375" rx="0.5"></rect>
                        <rect stroke="#979797" fill="#D8D8D8" mask="url(#mask-6)" x="23.3" y="-1.875" width="1" height="20.375" rx="0.5"></rect>
                        <rect stroke="#979797" fill="#D8D8D8" mask="url(#mask-6)" x="18.5" y="-1.875" width="1" height="20.375" rx="0.5"></rect>
                        <rect stroke="#979797" fill="#D8D8D8" mask="url(#mask-6)" x="13.7" y="-0.6875" width="1" height="20.375" rx="0.5"></rect>
                        <rect stroke="#979797" fill="#D8D8D8" mask="url(#mask-6)" x="11.3" y="-0.6875" width="1" height="20.375" rx="0.5"></rect>
                        <rect stroke="#979797" fill="#D8D8D8" mask="url(#mask-6)" x="8.9" y="-0.6875" width="1" height="20.375" rx="0.5"></rect>
                        <rect stroke="#979797" fill="#D8D8D8" mask="url(#mask-6)" x="6.5" y="-0.6875" width="1" height="20.375" rx="0.5"></rect>
                        <rect stroke="#979797" fill="#D8D8D8" mask="url(#mask-6)" x="4.1" y="-0.6875" width="1" height="20.375" rx="0.5"></rect>
                    </g>
                    <rect id="Rectangle-9" fill="#D8D8D8" x="172" y="109" width="38" height="39" rx="3"></rect>
                    <rect id="Rectangle-9" fill="#323030" x="173" y="111" width="36" height="34" rx="10"></rect>
                    <rect id="Rectangle-9" fill="#181818" x="178" y="116" width="26" height="25" rx="10"></rect>
                    <g id="Rectangle-7" transform="translate(101.000000, 166.000000)">
                        <g id="Rectangle-29">
                            <mask id="mask-8" fill="white">
                                <use xlink:href="#path-7"></use>
                            </mask>
                            <rect stroke="#2B292A" x="0.5" y="0.5" width="42" height="13" rx="3"></rect>
                            <rect fill="#181818" mask="url(#mask-8)" x="0" y="9.8" width="44.1944444" height="5.6"></rect>
                        </g>
                        <rect fill="#2B292A" x="20.3055556" y="0" width="2.38888889" height="14" rx="1.19444444"></rect>
                    </g>
                    <polygon id="Path-2" fill="#181818" points="108.2 170.25 111 170.25 111 172.75 108.2 172.75 108.2 174 104 171.5 108.2 169"></polygon>
                    <polygon id="Path-2" fill="#FFFFFF" transform="translate(136.500000, 171.500000) scale(-1, 1) translate(-136.500000, -171.500000) " points="137.2 170.25 140 170.25 140 172.75 137.2 172.75 137.2 174 133 171.5 137.2 169"></polygon>
                    <path d="M18.8646212,57 L220.180764,57 C221.285333,57 222.180764,57.8954305 222.180764,59 C222.180764,59.231362 222.140619,59.4609696 222.062118,59.6786065 L218.332719,70.0179098 C217.903713,71.2072763 216.775061,72 215.510688,72 L22.7086819,72 C21.3639168,72 20.1834428,71.1051273 19.8201992,69.8103503 L16.938966,59.5402335 C16.6406033,58.4767236 17.2608777,57.3727076 18.3243876,57.0743449 C18.5002265,57.0250141 18.6819936,57 18.8646212,57 Z" id="Rectangle-2" fill="#E1DFDF"></path>
                    <path d="M103.958543,62 L143.063584,62 C144.720438,62 146.063584,63.3431458 146.063584,65 C146.063584,65.1106687 146.05746,65.2212527 146.04524,65.3312447 L142.379132,98.3312447 C142.210344,99.8505646 140.926142,101 139.397475,101 L106.396308,101 C104.825198,101 103.520206,99.7878536 103.40446,98.2210128 L100.966695,65.2210128 C100.844633,63.5686609 102.085178,62.1302142 103.73753,62.0081522 C103.811076,62.0027192 103.884797,62 103.958543,62 Z" id="Rectangle-4" fill="#4C4B4B" opacity="0.516964286"></path>
                    <path d="M103.96551,68 L142.052592,68 C143.709446,68 145.052592,69.3431458 145.052592,71 C145.052592,71.0924115 145.048322,71.1847737 145.039796,71.2767911 L141.982051,104.276791 C141.839078,105.819795 140.544461,107 138.994847,107 L106.004006,107 C104.418978,107 103.107439,105.766978 103.009714,104.184965 L100.971217,71.1849653 C100.869064,69.5312632 102.126842,68.107861 103.780544,68.0057075 C103.842126,68.0019034 103.903811,68 103.96551,68 Z" id="Rectangle-4" fill="#353535"></path>
                    <path d="M20.1400986,-2.21444867e-17 L219.790017,6.21724894e-15 C221.377036,5.92571832e-15 222.6895,1.23602025 222.784623,2.82018572 L226.02711,56.8201857 C226.126419,58.4740611 224.866193,59.8952976 223.212318,59.9946063 C223.152447,59.9982013 223.092482,60 223.032504,60 L17.9784408,60 C16.3215865,60 14.9784408,58.6568542 14.9784408,57 C14.9784408,56.9599893 14.9792412,56.9199827 14.9808416,56.880004 L17.1424994,2.880004 C17.2069041,1.27112033 18.5299264,7.39873053e-16 20.1400986,4.4408921e-16 Z" id="Rectangle-24" fill="#454545"></path>
                    <rect id="Rectangle" fill="#FFFFFF" x="29" y="8" width="107" height="44" rx="3"></rect>
                    <rect id="Rectangle" fill="#353535" x="29" y="7" width="107" height="44" rx="3"></rect>
                    <rect id="Rectangle" fill="#353535" x="139" y="8" width="72" height="41" rx="3"></rect>
                    <rect id="Rectangle" fill="#E4E3E3" x="142" y="11" width="67" height="37" rx="1"></rect>
                    <rect id="Rectangle" fill="#464646" x="31" y="9" width="102" height="39" rx="3"></rect>
                    <rect id="Rectangle-14" fill="#3B383A" x="0" y="181" width="13" height="28" rx="2"></rect>
                    <rect id="Rectangle-14" fill="#FE825A" x="2" y="184" width="8" height="24" rx="2"></rect>
                    <polygon id="Path-12" fill="#D0CBCB" points="217 4.2 218.142857 3 221 60 219.857143 60"></polygon>
                    <polygon id="Path-12" fill="#D0CBCB" transform="translate(20.500000, 31.500000) scale(-1, 1) rotate(1.000000) translate(-20.500000, -31.500000) " points="18 4.23087512 19.9570345 3 23 60 21.6916099 60"></polygon>
                    <polygon id="Path-11" fill="#FFFFFF" points="20 3 21.8 4 216.8 4 218 3"></polygon>
                    <path d="M39.9289312,30.6735219 L39.9289312,34.8457584 L38,34.8457584 L38,23.6169666 L42.2466984,23.6169666 C43.4869134,23.6169666 44.4717005,23.9434415 45.2010892,24.596401 C45.9304779,25.2493606 46.2951668,26.1131052 46.2951668,27.1876607 C46.2951668,28.2879232 45.9381021,29.1439558 45.2239619,29.7557841 C44.5098217,30.3676123 43.5097863,30.6735219 42.2238257,30.6735219 L39.9289312,30.6735219 Z M39.9289312,29.1079692 L42.2466984,29.1079692 C42.9328829,29.1079692 43.4564085,28.9447317 43.8172907,28.6182519 C44.1781729,28.2917721 44.3586113,27.8200545 44.3586113,27.2030848 C44.3586113,26.596398 44.1756315,26.111827 43.8096664,25.7493573 C43.4437014,25.3868876 42.9405069,25.2005142 42.3000681,25.1902314 L39.9289312,25.1902314 L39.9289312,29.1079692 Z M47.3549353,30.596401 C47.3549353,29.7789162 47.5150426,29.0424197 47.8352621,28.3868895 C48.1554815,27.7313592 48.6053068,27.2275082 49.1847515,26.8753213 C49.7641962,26.5231345 50.4300394,26.3470437 51.1823009,26.3470437 C52.2954446,26.3470437 53.1989074,26.7095079 53.8927161,27.4344473 C54.5865249,28.1593867 54.9613793,29.1208166 55.0172907,30.3187661 L55.0249149,30.7583548 C55.0249149,31.580981 54.8686197,32.3161921 54.5560245,32.9640103 C54.2434293,33.6118284 53.7961454,34.1131088 53.2141593,34.4678663 C52.6321732,34.8226239 51.9599766,35 51.1975494,35 C50.0335771,35 49.1021592,34.6079731 48.4032675,33.8239075 C47.7043759,33.0398418 47.3549353,31.9948651 47.3549353,30.688946 L47.3549353,30.596401 Z M49.2076242,30.7583548 C49.2076242,31.6169709 49.3829799,32.2892007 49.7336964,32.7750643 C50.0844129,33.2609279 50.572359,33.503856 51.1975494,33.503856 C51.8227397,33.503856 52.3094151,33.2570719 52.6575902,32.7634961 C53.0057653,32.2699204 53.1798502,31.5475626 53.1798502,30.596401 C53.1798502,29.7532092 53.0006825,29.0848354 52.6423417,28.5912596 C52.2840009,28.0976839 51.7973255,27.8508997 51.1823009,27.8508997 C50.5774419,27.8508997 50.09712,28.0938279 49.7413206,28.5796915 C49.3855213,29.0655551 49.2076242,29.7917689 49.2076242,30.7583548 Z M58.5625596,34.8457584 L56.7098707,34.8457584 L56.7098707,23 L58.5625596,23 L58.5625596,34.8457584 Z M65.5082369,34.8457584 C65.4269113,34.6863745 65.3557525,34.426737 65.2947583,34.066838 C64.7051479,34.6889491 63.9833943,35 63.1294758,35 C62.3009716,35 61.6249629,34.7609278 61.1014295,34.2827763 C60.5778962,33.8046249 60.3161334,33.2133711 60.3161334,32.5089974 C60.3161334,31.6195328 60.6427015,30.9370204 61.2958475,30.4614396 C61.9489935,29.9858588 62.8829529,29.748072 64.0977536,29.748072 L65.2337645,29.748072 L65.2337645,29.2005141 C65.2337645,28.7686354 65.1143193,28.4228805 64.8754255,28.1632391 C64.6365316,27.9035977 64.2731134,27.7737789 63.78516,27.7737789 C63.3632836,27.7737789 63.0176551,27.8804617 62.7482641,28.0938303 C62.4788732,28.307199 62.3441797,28.5784045 62.3441797,28.907455 L60.4914908,28.907455 C60.4914908,28.4498692 60.6414326,28.0218529 60.9413206,27.6233933 C61.2412087,27.2249337 61.6491011,26.9125975 62.1650102,26.6863753 C62.6809193,26.4601531 63.2565432,26.3470437 63.8918993,26.3470437 C64.8576404,26.3470437 65.6276804,26.5925425 66.2020422,27.0835476 C66.7764041,27.5745526 67.0712048,28.264777 67.0864534,29.1542416 L67.0864534,32.9177378 C67.0864534,33.6683842 67.1906502,34.2673499 67.399047,34.714653 L67.399047,34.8457584 L65.5082369,34.8457584 Z M63.4725664,33.496144 C63.8385314,33.496144 64.1828892,33.4061706 64.5056501,33.2262211 C64.828411,33.0462716 65.0711133,32.8046288 65.2337645,32.5012853 L65.2337645,30.9280206 L64.2349898,30.9280206 C63.5488053,30.9280206 63.0329039,31.048842 62.6872703,31.2904884 C62.3416366,31.5321349 62.1688223,31.8740338 62.1688223,32.3161954 C62.1688223,32.6760943 62.2869968,32.9627239 62.5233492,33.1760925 C62.7597017,33.3894612 63.0761042,33.496144 63.4725664,33.496144 Z M73.3459496,28.2133676 C73.1019729,28.1722363 72.8503757,28.151671 72.5911504,28.151671 C71.7423148,28.151671 71.1705029,28.4807165 70.8756978,29.1388175 L70.8756978,34.8457584 L69.0230088,34.8457584 L69.0230088,26.5012853 L70.7918312,26.5012853 L70.8375766,27.4344473 C71.2848672,26.7095079 71.9049654,26.3470437 72.6978897,26.3470437 C72.9621978,26.3470437 73.180757,26.3830331 73.3535739,26.4550129 L73.3459496,28.2133676 Z M73.8948945,30.596401 C73.8948945,29.7789162 74.0550018,29.0424197 74.3752212,28.3868895 C74.6954407,27.7313592 75.145266,27.2275082 75.7247107,26.8753213 C76.3041554,26.5231345 76.9699985,26.3470437 77.72226,26.3470437 C78.8354038,26.3470437 79.7388665,26.7095079 80.4326753,27.4344473 C81.1264841,28.1593867 81.5013385,29.1208166 81.5572498,30.3187661 L81.5648741,30.7583548 C81.5648741,31.580981 81.4085788,32.3161921 81.0959837,32.9640103 C80.7833885,33.6118284 80.3361046,34.1131088 79.7541184,34.4678663 C79.1721323,34.8226239 78.4999357,35 77.7375085,35 C76.5735363,35 75.6421183,34.6079731 74.9432267,33.8239075 C74.2443351,33.0398418 73.8948945,31.9948651 73.8948945,30.688946 L73.8948945,30.596401 Z M75.7475834,30.7583548 C75.7475834,31.6169709 75.922939,32.2892007 76.2736555,32.7750643 C76.6243721,33.2609279 77.1123182,33.503856 77.7375085,33.503856 C78.3626988,33.503856 78.8493743,33.2570719 79.1975494,32.7634961 C79.5457245,32.2699204 79.7198094,31.5475626 79.7198094,30.596401 C79.7198094,29.7532092 79.5406417,29.0848354 79.1823009,28.5912596 C78.8239601,28.0976839 78.3372847,27.8508997 77.72226,27.8508997 C77.1174011,27.8508997 76.6370792,28.0938279 76.2812798,28.5796915 C75.9254804,29.0655551 75.7475834,29.7917689 75.7475834,30.7583548 Z M85.1025187,34.8457584 L83.2498298,34.8457584 L83.2498298,26.5012853 L85.1025187,26.5012853 L85.1025187,34.8457584 Z M86.772226,30.6118252 C86.772226,29.3264717 87.0670268,28.2943484 87.6566372,27.5154242 C88.2462476,26.7365 89.0366186,26.3470437 90.027774,26.3470437 C90.9020239,26.3470437 91.6085292,26.6555239 92.1473111,27.2724936 L92.1473111,23 L94,23 L94,34.8457584 L92.3226685,34.8457584 L92.2311777,33.9820051 C91.6771472,34.6606718 90.9376039,35 90.0125255,35 C89.0467844,35 88.2653082,34.6066877 87.6680735,33.8200514 C87.0708389,33.0334151 86.772226,31.964017 86.772226,30.6118252 Z M88.6249149,30.7737789 C88.6249149,31.6221122 88.7862929,32.2840593 89.1090538,32.7596401 C89.4318146,33.2352209 89.8905348,33.4730077 90.485228,33.4730077 C91.2425724,33.4730077 91.7965946,33.1311088 92.1473111,32.4473008 L92.1473111,28.8843188 C91.8067603,28.215935 91.2578209,27.8817481 90.5004765,27.8817481 C89.9007004,27.8817481 89.4381682,28.1221056 89.1128659,28.6028278 C88.7875636,29.08355 88.6249149,29.8071931 88.6249149,30.7737789 Z" id="Polaroid" fill="#FFFFFF"></path>
                    <rect id="Rectangle-5" stroke="#E1DFDF" stroke-width="2" fill="#4A4A4A" x="26" y="114" width="74" height="48" rx="3"></rect>
                    <rect id="Rectangle-5" stroke="#E1DFDF" stroke-width="2" fill="#3F3D3D" x="98" y="114" width="48" height="48" rx="3"></rect>
                    <g id="Group" transform="translate(16.000000, 148.000000)">
                        <polygon id="Path-17" fill="#707071" points="3.5 1.19354839 6.41666667 1.19354839 6.41666667 32.2258065 4.95833333 32.2258065"></polygon>
                        <polygon id="Path-16" fill="#3B383A" points="0.583333333 0 2.75392939 37 6.37158947 37 4.20099342 0"></polygon>
                    </g>
                    <path d="M18.0511204,190 L223.044639,190 C224.149209,190 225.044639,190.895431 225.044639,192 C225.044639,192.079859 225.039856,192.159647 225.030316,192.238935 L223.211004,207.358402 C223.029625,208.865761 221.750722,210 220.23249,210 L19.9553966,210 C18.3685144,210 17.0561132,208.764186 16.9608115,207.180168 L16.0547304,192.120112 C15.9883945,191.017536 16.8284328,190.069946 17.9310086,190.00361 C17.9710007,190.001204 18.011056,190 18.0511204,190 Z" id="Rectangle-26" fill="#3B383A"></path>
                    <path d="M19.9599987,210 L219.047076,210 C220.70393,210 222.047076,211.343146 222.047076,213 C222.047076,213.078992 222.043956,213.157954 222.037724,213.2367 L218.536529,257.473401 C218.289562,260.593762 215.685353,263 212.555234,263 L25.9518604,263 C22.7957774,263 20.1792378,260.554953 19.9656197,257.406107 L16.9668784,213.203054 C16.854735,211.549999 18.1038903,210.119023 19.756945,210.00688 C19.8245325,210.002295 19.8922559,210 19.9599987,210 Z" id="Rectangle-11" fill="#3B383A"></path>
                    <path d="M23.5599305,182 L216.463874,182 C217.11247,182 217.720794,182.314524 218.095766,182.843744 L223.055522,189.843744 C223.694105,190.745014 223.481155,191.99331 222.579885,192.631892 C222.241888,192.871376 221.837869,193 221.42363,193 L17.4556151,193 C16.3510456,193 15.4556151,192.104569 15.4556151,191 C15.4556151,190.516708 15.6306164,190.049763 15.9482564,189.685515 L22.0525719,182.685515 C22.4323889,182.249968 22.9820356,182 23.5599305,182 Z" id="Rectangle-28" fill="#707071"></path>
                    <rect id="Rectangle-9" fill="#323030" x="101" y="115" width="43" height="44" rx="10"></rect>
                    <rect id="Rectangle-9" fill="#181818" x="106" y="120" width="34" height="34" rx="10"></rect>
                    <polygon id="Path-13" fill="#555557" points="29 233 39 233.606061 39 253 30.875 253"></polygon>
                    <rect id="Rectangle-13" fill="#4A4A4A" x="38" y="236" width="172" height="2"></rect>
                    <rect id="Rectangle-13" fill="#2C2B2B" x="38" y="238" width="171" height="12"></rect>
                    <rect id="Rectangle-13" fill="#D8D8D8" x="38" y="238" width="166" height="6"></rect>
                    <polygon id="Path-14" fill="#555557" points="211 230 211 254 207 251.75 207 230"></polygon>
                    <polygon id="Path-15" fill="#4A4A4A" points="37.993266 249 32 252.428571 210 253 205.804714 249"></polygon>
                    <path d="M29,219 L210,219 L210,233 C210,234.656854 208.656854,236 207,236 L32,236 C30.3431458,236 29,234.656854 29,233 L29,219 Z" id="Rectangle-12" fill="#707071"></path>
                    <text id="One-Step" font-family="Roboto-Medium, Roboto Medium" font-size="11" font-weight="normal" fill="#FFFFFF">
                        <tspan x="38" y="134">One Step</tspan>
                    </text>
                    <text id="Flash" font-family="Roboto-Medium, Roboto Medium" font-size="9" font-weight="normal" fill="#FFFFFF">
                        <tspan x="50" y="148">Flash</tspan>
                    </text>
                </g>
                <g id="ONESTEP" transform="translate(0.000000, 131.000000)">
                    <g id="Group-4">
                        <g>
                            <path d="M83.4269663,119 L153.707865,119 L160.280899,132.00813 L225,132.00813 L225,179 C225,181.209139 223.209139,183 221,183 L4,183 C1.790861,183 2.705415e-16,181.209139 0,179 L0,134.089431 L75.3370787,132.00813 L83.4269663,119 Z" id="Path-22" fill="#262625"></path>
                            <text id="Polaroid" font-family="Roboto-Medium, Roboto Medium" font-size="14" font-weight="normal" fill="#FFFFFF">
                                <tspan x="93" y="172">Polaroid</tspan>
                            </text>
                            <text id="I-TYPE-CAMERA" font-family="AndaleMono, Andale Mono" font-size="6" font-weight="normal" fill="#FFFFFF">
                                <tspan x="166" y="174">I-TYPE CAMERA</tspan>
                            </text>
                            <rect id="Rectangle-8" fill="#131313" opacity="0.727622768" x="24" y="142.5" width="188" height="14.5" rx="2"></rect>
                            <rect id="Rectangle" fill="#777373" x="210" y="142" width="3" height="16"></rect>
                            <rect id="Rectangle" fill="#777373" x="24" y="142" width="3" height="15"></rect>
                            <path d="M92,119 L146,119 C147.104569,119 148,119.895431 148,121 L148,127 C148,130.865993 144.865993,134 141,134 L97,134 C93.1340068,134 90,130.865993 90,127 L90,121 C90,119.895431 90.8954305,119 92,119 Z" id="Rectangle-32" fill="#777373"></path>
                            <g id="Group-2" transform="translate(100.000000, 120.000000)">
                                <g id="Rectangle-7">
                                    <mask id="mask-10" fill="white">
                                        <use xlink:href="#path-9"></use>
                                    </mask>
                                    <use id="Mask" fill="#525150" xlink:href="#path-9"></use>
                                    <rect fill="#2F2E2D" mask="url(#mask-10)" x="28" y="0" width="14" height="11" rx="5"></rect>
                                    <path d="M29.3383181,1.5501489e-14 L37.7418328,1.58761893e-14 C40.1959321,1.54321e-14 42.2872661,1.78105 42.6780384,4.20383781 L43.25,7.75 C43.3233146,8.20455081 43.0142617,8.63247031 42.5597109,8.70578495 C42.1771584,8.76748697 41.8025273,8.55746681 41.6555693,8.19891846 C40.6807322,5.82041428 39.9621981,4.25411265 39.5,3.5 C38.2499733,1.4604828 35.5526344,0.157895556 35,-8.29752933e-14 C34.6684193,-0.0947373331 32.7452613,-0.104211067 29.2305258,-0.0284212011 L29.2311636,0.00115517659 C29.2668766,0.000385081239 29.3025968,1.58761893e-14 29.3383181,1.58761893e-14 Z" fill="#1E1E1D" mask="url(#mask-10)"></path>
                                </g>
                                <circle id="Oval-7" fill="#1E1D1D" cx="31" cy="6" r="5"></circle>
                                <circle id="Oval-7" fill="#525150" cx="31" cy="5" r="5"></circle>
                            </g>
                            <rect id="Rectangle-8" fill="#706E6E" x="26" y="146" width="186" height="6" rx="2"></rect>
                            <path d="M2.64507873,178.983559 L221.778763,178.512304 C222.88333,178.509928 223.780684,179.403431 223.783059,180.507998 C223.784369,181.117072 223.508062,181.69355 223.032454,182.074037 L221.25,183.5 C217.204181,186.736656 212.177272,188.5 206.996095,188.5 L15.9068559,188.5 C13.3450198,188.5 10.8258737,187.843871 8.58953557,186.594152 L1.67373708,182.729441 C0.709510336,182.190609 0.364660239,180.972138 0.903492832,180.007912 C1.25619226,179.376765 1.922071,178.985114 2.64507873,178.983559 Z" id="Rectangle-33" fill="#111110"></path>
                            <polygon id="Path-21" fill="#E0E0E0" points="6.5 118.5 1 123.5 84.5 123.5 84.5 118.5 152.5 118.5 152.5 123.5 224 123.5 220 118.5 221 118.5"></polygon>
                            <polygon id="Path-21" fill="#FFFFFF" points="6.5 118.5 1 123.5 84.5 123.5 84.5 118.5 152.5 118.5 152.5 123.5 224 123.5 220 118.5 221 118.5"></polygon>
                            <path d="M2,123 L84.5,123 L84.5,123 C84.2205531,129.706726 78.7021334,135 71.9895879,135 L2,135 C0.8954305,135 4.25922285e-14,134.104569 4.19664303e-14,133 L4.26325641e-14,125 C4.24972934e-14,123.895431 0.8954305,123 2,123 Z" id="Rectangle-6" fill="#E7E6E6"></path>
                            <path d="M154.5,123 L225,123 L225,123 C225,129.627417 219.627417,135 213,135 L154.5,135 C153.395431,135 152.5,134.104569 152.5,133 L152.5,125 C152.5,123.895431 153.395431,123 154.5,123 Z" id="Rectangle-6" fill="#E7E6E6" transform="translate(188.750000, 129.000000) scale(-1, 1) translate(-188.750000, -129.000000) "></path>
                            <path d="M21.6750514,0.5 L205.271369,0.5 C212.344213,0.5 218.119294,6.15452866 218.268477,13.2257994 L220.5,119 L6,119 L8.67921541,13.1709915 C8.85767813,6.12171372 14.623515,0.5 21.6750514,0.5 Z" id="Rectangle-30" fill="#F1F1F1"></path>
                            <circle id="Oval-5" fill="#2E2D2D" cx="118.465849" cy="48.2377803" r="24.7622197"></circle>
                            <circle id="Oval-5" fill="#131313" cx="117.965849" cy="47.9755607" r="17.5"></circle>
                            <rect id="Rectangle-3" fill="#E99C52" x="179" y="54" width="20" height="10" rx="5"></rect>
                            <circle id="Oval-3" fill="#0C0C0C" cx="157.5" cy="84.5" r="7.5"></circle>
                            <circle id="Oval-4" fill="#F1CA50" cx="189.435626" cy="58.9606695" r="4.5"></circle>
                            <rect id="Rectangle-4" stroke="#979797" fill="#232322" x="167.5" y="6.5" width="44" height="44" rx="7"></rect>
                            <rect id="Rectangle-5" fill="#080808" x="175" y="15" width="29.5" height="28" rx="5"></rect>
                            <rect id="Rectangle-5" fill="#CBCBC0" x="187" y="26" width="5.5" height="5.66666667" rx="2"></rect>
                            <circle id="Oval-3" fill="#31312F" cx="158.5" cy="83.5" r="7.5"></circle>
                            <g id="Group" transform="translate(62.000000, 11.000000)">
                                <circle id="Oval-2" fill="#5B5957" cx="5.5" cy="6.5" r="5.5"></circle>
                                <circle id="Oval-2" fill="#F8F5F5" cx="5.5" cy="5.5" r="5.5"></circle>
                            </g>
                            <circle id="Oval-2" fill="#232322" cx="68" cy="35" r="5"></circle>
                            <path d="M15.9557233,50.2769825 C15.9713323,50.3499352 15.9860912,50.4242744 16,50.5 C16.4254194,52.8161722 16.7471414,59.8285832 16.9651661,71.537233 L16.9651639,71.5372331 C16.9854582,72.6271006 17.874763,73.5 18.9648195,73.5 L31.549273,73.4999816 C32.4851043,73.4999816 33.2958179,74.1489135 33.5007485,75.0620311 C33.940326,77.020674 33.2734099,77.999997 31.5,78 C29.5908572,78.0000033 24.4241881,78.0000049 15.9999929,78.0000048 L15.9999929,77.9999977 C13.7908578,77.9999977 12,76.2091399 12,74.0000048 L12.0000119,50.6954308 C12.0000119,49.5908678 12.8954371,48.6954426 14,48.6954426 C14.9433029,48.6954426 15.7583604,49.3545573 15.9557233,50.2769825 Z" id="Rectangle-2" fill="#CCC9C9"></path>
                            <path d="M16.9557233,49.2769825 C16.9713323,49.3499352 16.9860912,49.4242744 17,49.5 C17.4254194,51.8161722 17.7471414,58.8285832 17.9651661,70.537233 L17.9651639,70.5372331 C17.9854582,71.6271006 18.874763,72.5 19.9648195,72.5 L32.549273,72.4999816 C33.4851043,72.4999816 34.2958179,73.1489135 34.5007485,74.0620311 C34.940326,76.020674 34.2734099,76.999997 32.5,77 C30.5908572,77.0000033 25.4241881,77.0000049 16.9999929,77.0000048 L16.9999929,76.9999977 C14.7908578,76.9999977 13,75.2091399 13,73.0000048 L13.0000119,49.6954308 C13.0000119,48.5908678 13.8954371,47.6954426 15,47.6954426 C15.9433029,47.6954426 16.7583604,48.3545573 16.9557233,49.2769825 Z" id="Rectangle-2" fill="#FFFFFF"></path>
                            <circle id="Oval" stroke="#FFFFFF" stroke-width="3" fill="#C92F38" cx="26.5" cy="98.5" r="12.5"></circle>
                            <path d="M66,13.5 L67.5,16" id="Path-18" stroke="#494747" stroke-width="0.5"></path>
                            <path d="M64,17.5 C64.4721682,18.1886608 64.8299787,18.660945 65.0734314,18.9168525 C66.4450074,20.3585973 67.9205303,20.5529798 69.5,19.5 C71.5,18.1666667 71.5,16.1666667 69.5,13.5" id="Path-19" stroke="#494747" stroke-width="0.5"></path>
                            <circle id="Oval-6" stroke="#181818" stroke-width="8" opacity="0.146875" cx="117" cy="51" r="40"></circle>
                            <path d="M64,16.5 C64,16.1666667 64.1666667,15.6666667 64.5,15 C64.6336775,14.7326449 64.9670109,14.3993116 65.5,14" id="Path-20" stroke="#494747" stroke-width="0.5"></path>
                            <circle id="Oval-6" stroke="#232322" stroke-width="4" cx="118" cy="48" r="40"></circle>
                            <circle id="Oval-6" stroke="#131313" stroke-width="4" cx="118" cy="48" r="37"></circle>
                            <circle id="Oval-6" stroke="#3F3F3E" stroke-width="4" cx="118" cy="48" r="34"></circle>
                            <circle id="Oval-6" stroke="#131313" stroke-width="4" cx="118" cy="48" r="33"></circle>
                            <circle id="Oval-6" stroke="#3F3F3E" stroke-width="4" cx="118" cy="48" r="32"></circle>
                            <circle id="Oval-6" stroke="#3F3F3E" stroke-width="4" cx="118" cy="48" r="32"></circle>
                            <circle id="Oval-6" stroke="#131313" stroke-width="4" cx="118" cy="48" r="31"></circle>
                            <circle id="Oval-6" stroke="#3F3F3E" stroke-width="4" cx="118" cy="48" r="30"></circle>
                            <circle id="Oval-6" stroke="#131313" stroke-width="4" cx="118" cy="48" r="29"></circle>
                            <circle id="Oval-6" stroke="#3F3F3E" stroke-width="4" cx="118" cy="48" r="28"></circle>
                            <circle id="Oval-6" stroke="#131313" stroke-width="4" cx="118" cy="48" r="27"></circle>
                            <circle id="Oval-6" stroke="#3F3F3E" stroke-width="4" cx="117.965849" cy="47.9755607" r="25.5"></circle>
                            <rect id="Rectangle-31" fill="#C8C2C2" x="167.977601" y="58.3578497" width="6" height="1" rx="0.5"></rect>
                            <rect id="Rectangle-31" fill="#FFFFFF" x="168" y="58" width="6" height="1" rx="0.5"></rect>
                            <rect id="Rectangle-31" fill="#C6C0C0" x="203.007005" y="59.1684297" width="6" height="1" rx="0.5"></rect>
                            <rect id="Rectangle-31" fill="#FFFFFF" x="203" y="59" width="6" height="1" rx="0.5"></rect>
                            <rect id="Rectangle-31" fill="#C6C0C0" transform="translate(206.213509, 59.499968) rotate(90.000000) translate(-206.213509, -59.499968) " x="203.213509" y="58.9999682" width="6" height="1" rx="0.5"></rect>
                            <rect id="Rectangle-31" fill="#FFFFFF" transform="translate(206.000000, 59.500000) rotate(90.000000) translate(-206.000000, -59.500000) " x="203" y="59" width="6" height="1" rx="0.5"></rect>
                            <g id="Path-23" transform="translate(16.000000, 9.000000)">
                                <mask id="mask-12" fill="white">
                                    <use xlink:href="#path-11"></use>
                                </mask>
                                <rect stroke="#494747" stroke-width="2" x="1" y="1" width="35" height="63" rx="6"></rect>
                                <path d="M2,5.5 C2,5.17507049 2.50416863,4.19378379 3,3.5 C3.3412828,3.02246573 3.6025701,2.82026756 4,2.5 C4.53478681,2.06904384 13.8681201,22.2357105 32,63 L6,63 C3.790861,63 2,61.209139 2,59 C2,41.1666667 2,23.3333333 2,5.5 Z" fill="#D4D2D2" mask="url(#mask-12)"></path>
                            </g>
                            <g id="Group-3" transform="translate(34.000000, 158.000000)">
                                <rect id="Rectangle-34" fill="#C92F38" x="0" y="15" width="17" height="5"></rect>
                                <rect id="Rectangle-34" fill="#F1CA50" x="0" y="7" width="17" height="3"></rect>
                                <rect id="Rectangle-34" fill="#55B96C" x="0" y="3" width="17" height="3"></rect>
                                <rect id="Rectangle-34" fill="#5FA6CF" x="0" y="0" width="17" height="2"></rect>
                                <rect id="Rectangle-34" fill="#E99C52" x="0" y="11" width="17" height="3"></rect>
                            </g>
                        </g>
                    </g>
                    <text id="One" font-family="Roboto-Medium, Roboto Medium" font-size="12" font-weight="normal" fill="#0C0B0B">
                        <tspan x="177.853057" y="100.992061">One</tspan>
                    </text>
                    <text id="Step" font-family="Roboto-Medium, Roboto Medium" font-size="12" font-weight="normal" fill="#0C0B0B">
                        <tspan x="173" y="110">Step</tspan>
                    </text>
                    <text id="2" font-family="Roboto-Bold, Roboto" font-size="12" font-weight="bold" fill="#F1CA50">
                        <tspan x="198" y="110">2</tspan>
                    </text>
                </g>
            </g>
        </g>
    </g>
</svg>